<svg width="28" height="22" viewBox="0 0 28 22" fill="none" xmlns="http://www.w3.org/2000/svg">
<g clip-path="url(#clip0_0_149)">
<path d="M25.8125 0.6875H1.4375C0.918945 0.6875 0.5 1.10645 0.5 1.625V20.375C0.5 20.8936 0.918945 21.3125 1.4375 21.3125H25.8125C26.3311 21.3125 26.75 20.8936 26.75 20.375V1.625C26.75 1.10645 26.3311 0.6875 25.8125 0.6875ZM24.6406 3.93359V19.2031H2.60938V3.93359L1.80078 3.30371L2.95215 1.82422L4.20605 2.7998H23.0469L24.3008 1.82422L25.4521 3.30371L24.6406 3.93359ZM23.0469 2.79688L13.625 10.1211L4.20312 2.79688L2.94922 1.82129L1.79785 3.30078L2.60645 3.93066L12.6143 11.7119C12.9021 11.9355 13.2561 12.0569 13.6206 12.0569C13.9851 12.0569 14.3391 11.9355 14.627 11.7119L24.6406 3.93359L25.4492 3.30371L24.2979 1.82422L23.0469 2.79688Z" fill="#2091F9"/>
</g>
<defs>
<clipPath id="clip0_0_149">
<rect width="27" height="22" fill="white" transform="translate(0.5)"/>
</clipPath>
</defs>
</svg>
