<svg width="29" height="24" viewBox="0 0 29 24" fill="none" xmlns="http://www.w3.org/2000/svg">
<g clip-path="url(#clip0_60_20)">
<path d="M27.1875 0.75H1.00694C0.449978 0.75 0 1.20703 0 1.77273V22.2273C0 22.793 0.449978 23.25 1.00694 23.25H27.1875C27.7445 23.25 28.1944 22.793 28.1944 22.2273V1.77273C28.1944 1.20703 27.7445 0.75 27.1875 0.75ZM25.9288 4.29119V20.9489H2.26562V4.29119L1.39714 3.60405L2.63379 1.99006L3.98058 3.05433H24.217L25.5638 1.99006L26.8005 3.60405L25.9288 4.29119ZM24.217 3.05114L14.0972 11.0412L3.97743 3.05114L2.63064 1.98686L1.39399 3.60085L2.26248 4.288L13.0116 12.7766C13.3207 13.0206 13.701 13.153 14.0925 13.153C14.484 13.153 14.8643 13.0206 15.1734 12.7766L25.9288 4.29119L26.7973 3.60405L25.5607 1.99006L24.217 3.05114Z" fill="white"/>
</g>
<defs>
<clipPath id="clip0_60_20">
<rect width="29" height="24" fill="white"/>
</clipPath>
</defs>
</svg>
