<svg width="42" height="41" viewBox="0 0 42 41" fill="none" xmlns="http://www.w3.org/2000/svg">
<path d="M36.2104 4.48975H6.75129C6.04283 4.48975 5.47046 5.06212 5.47046 5.77058V35.2297C5.47046 35.9382 6.04283 36.5105 6.75129 36.5105H36.2104C36.9189 36.5105 37.4912 35.9382 37.4912 35.2297V5.77058C37.4912 5.06212 36.9189 4.48975 36.2104 4.48975ZM32.512 13.8358H29.9543C27.949 13.8358 27.5608 14.7884 27.5608 16.1893V19.2753H32.3479L31.7235 24.1065H27.5608V36.5105H22.5696V24.1105H18.3948V19.2753H22.5696V15.713C22.5696 11.5783 25.0952 9.32488 28.7856 9.32488C30.5547 9.32488 32.0717 9.45697 32.516 9.51701V13.8358H32.512Z" fill="white"/>
</svg>
