<svg width="42" height="42" viewBox="0 0 42 42" fill="none" xmlns="http://www.w3.org/2000/svg">
<path d="M21 24.5C24.8605 24.5 28 21.3605 28 17.5C28 13.6395 24.8605 10.5 21 10.5C17.1395 10.5 14 13.6395 14 17.5C14 21.3605 17.1395 24.5 21 24.5ZM21 14C22.9303 14 24.5 15.5697 24.5 17.5C24.5 19.4302 22.9303 21 21 21C19.0698 21 17.5 19.4302 17.5 17.5C17.5 15.5697 19.0698 14 21 14Z" fill="white"/>
<path d="M19.9852 38.1745C20.2813 38.386 20.6362 38.4997 21.0002 38.4997C21.3641 38.4997 21.719 38.386 22.0152 38.1745C22.5472 37.7983 35.0509 28.77 35.0002 17.5C35.0002 9.78075 28.7194 3.5 21.0002 3.5C13.2809 3.5 7.00015 9.78075 7.00015 17.4913C6.9494 28.77 19.4532 37.7983 19.9852 38.1745ZM21.0002 7C26.7909 7 31.5002 11.7093 31.5002 17.5088C31.5369 25.2753 23.8212 32.249 21.0002 34.5363C18.1809 32.2473 10.4634 25.2718 10.5002 17.5C10.5002 11.7093 15.2094 7 21.0002 7Z" fill="white"/>
</svg>
