<svg width="27" height="32" viewBox="0 0 27 32" fill="none" xmlns="http://www.w3.org/2000/svg">
<g clip-path="url(#clip0_0_137)">
<path d="M13.4998 19.1667C16.9927 19.1667 19.8332 16.3262 19.8332 12.8333C19.8332 9.3405 16.9927 6.5 13.4998 6.5C10.007 6.5 7.1665 9.3405 7.1665 12.8333C7.1665 16.3262 10.007 19.1667 13.4998 19.1667ZM13.4998 9.66667C15.2463 9.66667 16.6665 11.0869 16.6665 12.8333C16.6665 14.5798 15.2463 16 13.4998 16C11.7534 16 10.3332 14.5798 10.3332 12.8333C10.3332 11.0869 11.7534 9.66667 13.4998 9.66667Z" fill="#2091F9"/>
<path d="M12.2487 31.5389C12.5167 31.7303 12.8378 31.8332 13.1671 31.8332C13.4963 31.8332 13.8174 31.7303 14.0854 31.5389C14.5667 31.1985 25.8796 23.0301 25.8337 12.8334C25.8337 5.84933 20.1511 0.166748 13.1671 0.166748C6.18297 0.166748 0.500384 5.84933 0.500384 12.8255C0.454467 23.0301 11.7674 31.1985 12.2487 31.5389ZM13.1671 3.33341C18.4063 3.33341 22.667 7.59416 22.667 12.8413C22.7003 19.8682 15.7194 26.1777 13.1671 28.2472C10.6163 26.1762 3.6338 19.865 3.66705 12.8334C3.66705 7.59416 7.9278 3.33341 13.1671 3.33341Z" fill="#2091F9"/>
</g>
<defs>
<clipPath id="clip0_0_137">
<rect width="26" height="32" fill="white" transform="translate(0.5)"/>
</clipPath>
</defs>
</svg>
