<svg width="93" height="93" viewBox="0 0 93 93" fill="none" xmlns="http://www.w3.org/2000/svg">
<path d="M43.5938 58.125H49.4062V69.75H43.5938V58.125ZM58.125 52.3125H63.9375V69.75H58.125V52.3125ZM29.0625 40.6875H34.875V69.75H29.0625V40.6875Z" fill="#183C70"/>
<path d="M72.6562 14.5312H63.9375V11.625C63.9375 10.0834 63.3251 8.605 62.2351 7.51494C61.145 6.42489 59.6666 5.8125 58.125 5.8125H34.875C33.3334 5.8125 31.855 6.42489 30.7649 7.51494C29.6749 8.605 29.0625 10.0834 29.0625 11.625V14.5312H20.3437C18.8022 14.5312 17.3237 15.1436 16.2337 16.2337C15.1436 17.3237 14.5313 18.8022 14.5312 20.3437V81.375C14.5313 82.9166 15.1436 84.395 16.2337 85.4851C17.3237 86.5751 18.8022 87.1875 20.3437 87.1875H72.6562C74.1978 87.1875 75.6762 86.5751 76.7663 85.4851C77.8564 84.395 78.4687 82.9166 78.4687 81.375V20.3437C78.4687 18.8022 77.8564 17.3237 76.7663 16.2337C75.6762 15.1436 74.1978 14.5312 72.6562 14.5312ZM34.875 11.625H58.125V23.25H34.875V11.625ZM72.6562 81.375H20.3437V20.3437H29.0625V29.0625H63.9375V20.3437H72.6562V81.375Z" fill="#183C70"/>
</svg>
