<svg width="85" height="86" viewBox="0 0 85 86" fill="none" xmlns="http://www.w3.org/2000/svg">
<path d="M37.8093 69.3347L35.1759 74.6016H10.8987V0.864746H74.1017V49.378L68.8348 38.8442V6.13166H16.1656V69.3347H37.8093ZM26.6994 37.7332H21.4325V32.4663H26.6994V37.7332ZM53.6101 37.7332H31.9664V32.4663H56.2436L53.6101 37.7332ZM21.4325 48.267H26.6994V53.5339H21.4325V48.267ZM31.9664 48.267H48.3432L45.7097 53.5339H31.9664V48.267ZM26.6994 21.9324H21.4325V16.6655H26.6994V21.9324ZM63.5679 21.9324H31.9664V16.6655H63.5679V21.9324ZM63.5679 58.8009V71.9681H58.3009V58.8009H63.5679ZM58.3009 74.6016H63.5679V79.8685H58.3009V74.6016ZM84.6355 85.1354H37.2333L60.9344 37.7332L84.6355 85.1354ZM44.681 80.5269H77.1878L60.9344 48.0201L44.681 80.5269Z" fill="#183C70"/>
</svg>
