<svg width="81" height="80" viewBox="0 0 81 80" fill="none" xmlns="http://www.w3.org/2000/svg">
<path d="M73.8333 7.49971H63V2.49971C63.0004 1.83667 62.7375 1.20061 62.2689 0.731459C61.8004 0.262305 61.1647 -0.0015105 60.5017 -0.00195253C59.8386 -0.00239456 59.2026 0.260574 58.7334 0.729102C58.2643 1.19763 58.0004 1.83334 58 2.49638V7.49971H43V2.49971C43.0002 2.17141 42.9358 1.84628 42.8103 1.54288C42.6849 1.23948 42.5009 0.96376 42.2689 0.731459C42.037 0.499158 41.7615 0.314825 41.4582 0.188986C41.155 0.0631474 40.83 -0.0017337 40.5017 -0.00195257C39.8386 -0.0023946 39.2026 0.260574 38.7334 0.729102C38.2643 1.19763 38.0004 1.83334 38 2.49638V7.49971H23V2.49971C23.0002 2.17141 22.9358 1.84628 22.8103 1.54288C22.6849 1.23948 22.5009 0.96376 22.2689 0.731459C22.037 0.499158 21.7615 0.314825 21.4582 0.188986C21.155 0.0631474 20.83 -0.0017337 20.5017 -0.00195257C19.8386 -0.0023946 19.2026 0.260574 18.7334 0.729102C18.2643 1.19763 18.0004 1.83334 18 2.49638V7.49971H7.16667C5.39913 7.49971 3.70395 8.20163 2.4538 9.45116C1.20365 10.7007 0.500884 12.3955 0.5 14.163V73.3297C0.5 75.0978 1.20238 76.7935 2.45262 78.0438C3.70286 79.294 5.39856 79.9964 7.16667 79.9964H73.8333C75.6014 79.9964 77.2971 79.294 78.5474 78.0438C79.7976 76.7935 80.5 75.0978 80.5 73.3297V14.163C80.4991 12.3955 79.7963 10.7007 78.5462 9.45116C77.2961 8.20163 75.6009 7.49971 73.8333 7.49971ZM75.5 73.333C75.5 73.7745 75.3249 74.1979 75.013 74.5104C74.7012 74.8228 74.2781 74.9988 73.8367 74.9997H7.16667C6.72464 74.9997 6.30072 74.8241 5.98816 74.5116C5.67559 74.199 5.5 73.7751 5.5 73.333V14.1664C5.50088 13.7249 5.67687 13.3019 5.98933 12.99C6.3018 12.6782 6.72522 12.503 7.16667 12.503H18V17.503C17.9996 18.1661 18.2625 18.8021 18.7311 19.2713C19.1996 19.7405 19.8353 20.0043 20.4983 20.0047C21.1614 20.0052 21.7974 19.7422 22.2666 19.2737C22.7357 18.8051 22.9996 18.1694 23 17.5064V12.503H38V17.503C37.9996 18.1661 38.2625 18.8021 38.7311 19.2713C39.1996 19.7405 39.8353 20.0043 40.4983 20.0047C41.1614 20.0052 41.7974 19.7422 42.2666 19.2737C42.7357 18.8051 42.9996 18.1694 43 17.5064V12.503H58V17.503C57.9996 18.1661 58.2625 18.8021 58.7311 19.2713C59.1996 19.7405 59.8353 20.0043 60.4983 20.0047C61.1614 20.0052 61.7974 19.7422 62.2666 19.2737C62.7357 18.8051 62.9996 18.1694 63 17.5064V12.503H73.8333C74.2742 12.5039 74.6968 12.6795 75.0085 12.9912C75.3203 13.3029 75.4958 13.7255 75.4967 14.1664L75.5 73.333Z" fill="#183C70"/>
<path d="M18 30H28V37.5H18V30ZM18 42.5H28V50H18V42.5ZM18 55H28V62.5H18V55ZM35.5 55H45.5V62.5H35.5V55ZM35.5 42.5H45.5V50H35.5V42.5ZM35.5 30H45.5V37.5H35.5V30ZM53 55H63V62.5H53V55ZM53 42.5H63V50H53V42.5ZM53 30H63V37.5H53V30Z" fill="#183C70"/>
</svg>
