<svg width="35" height="35" viewBox="0 0 35 35" fill="none" xmlns="http://www.w3.org/2000/svg">
<path d="M25.2554 0.119128C27.0317 0.200794 28.2596 0.461836 29.3942 0.902253C30.4691 1.30618 31.4427 1.9403 32.2467 2.76017C33.0665 3.56417 33.7007 4.53775 34.1046 5.61267C34.545 6.74871 34.806 7.97517 34.8877 9.75142C34.9883 11.9535 35 12.7293 35 17.5068C35 22.2843 34.9883 23.0602 34.8877 25.2623C34.806 27.0385 34.545 28.2664 34.1046 29.4025C33.7005 30.4769 33.0664 31.4499 32.2467 32.2535C31.4427 33.0734 30.4691 33.7075 29.3942 34.1114C28.2581 34.5518 27.0317 34.8129 25.2554 34.8945C23.0533 34.9952 22.279 35.0068 17.5 35.0068C12.721 35.0068 11.9452 34.9952 9.74458 34.8945C7.96833 34.8129 6.74042 34.5518 5.60437 34.1114C4.52998 33.7073 3.55691 33.0732 2.75333 32.2535C1.93346 31.4495 1.29934 30.4759 0.895417 29.401C0.455 28.265 0.193958 27.0385 0.112292 25.2623C0.0116667 23.0631 0 22.2873 0 17.5068C0 12.7264 0.0116667 11.9506 0.112292 9.75142C0.193958 7.97517 0.455 6.74725 0.895417 5.61267C1.29934 4.53775 1.93346 3.56417 2.75333 2.76017C3.55691 1.94048 4.52998 1.30637 5.60437 0.902253C6.74188 0.461836 7.96833 0.200794 9.74458 0.119128C11.9438 0.0185026 12.7196 0.00683594 17.5 0.00683594C22.2804 0.00683594 23.0563 0.0185026 25.2554 0.119128ZM17.5 3.89621C12.775 3.89621 12.0517 3.90642 9.92104 4.00413C8.56917 4.06538 7.75833 4.23746 7.01313 4.52767C6.37875 4.77559 5.97479 5.03809 5.50229 5.50913C5.02979 5.98017 4.76875 6.38559 4.52083 7.02142C4.23208 7.76517 4.05854 8.57746 3.99729 9.92934C3.89958 12.0585 3.88938 12.7818 3.88938 17.5068C3.88938 22.2318 3.89958 22.9552 3.99729 25.0858C4.05854 26.4377 4.23063 27.2485 4.52083 27.9923C4.76875 28.6281 5.03125 29.032 5.50229 29.5045C5.97333 29.977 6.37875 30.2395 7.01313 30.486C7.75688 30.7748 8.56917 30.9483 9.92104 31.0095C12.0531 31.1073 12.7765 31.1175 17.5 31.1175C22.225 31.1175 22.9469 31.1073 25.079 31.0095C26.4308 30.9483 27.2417 30.7762 27.9869 30.486C28.6213 30.2381 29.0252 29.9756 29.4977 29.5045C29.9702 29.0335 30.2327 28.6281 30.4792 27.9937C30.7679 27.25 30.9415 26.4377 31.0027 25.0858C31.1004 22.9537 31.1106 22.2304 31.1106 17.5068C31.1106 12.7833 31.1004 12.06 31.0027 9.92788C30.9415 8.576 30.7694 7.76517 30.4792 7.02142C30.2734 6.4482 29.9374 5.93054 29.4977 5.50913C29.0763 5.06942 28.5586 4.73346 27.9854 4.52767C27.2417 4.23892 26.4294 4.06538 25.0775 4.00413C22.9469 3.90642 22.2235 3.89621 17.4985 3.89621M17.4985 26.5806C15.092 26.5806 12.7841 25.6246 11.0824 23.9229C9.38077 22.2213 8.42479 19.9133 8.42479 17.5068C8.42479 15.1003 9.38077 12.7924 11.0824 11.0907C12.7841 9.38907 15.092 8.43309 17.4985 8.43309C19.9051 8.43309 22.213 9.38907 23.9147 11.0907C25.6163 12.7924 26.5723 15.1003 26.5723 17.5068C26.5723 19.9133 25.6163 22.2213 23.9147 23.9229C22.213 25.6246 19.9051 26.5806 17.4985 26.5806ZM17.4985 22.6927C18.8739 22.6927 20.1929 22.1463 21.1655 21.1738C22.138 20.2012 22.6844 18.8822 22.6844 17.5068C22.6844 16.1315 22.138 14.8124 21.1655 13.8399C20.1929 12.8674 18.8739 12.321 17.4985 12.321C16.1232 12.321 14.8041 12.8674 13.8316 13.8399C12.8591 14.8124 12.3127 16.1315 12.3127 17.5068C12.3127 18.8822 12.8591 20.2012 13.8316 21.1738C14.8041 22.1463 16.1232 22.6927 17.4985 22.6927ZM26.5723 10.377C26.0565 10.377 25.5619 10.1722 25.1972 9.80746C24.8325 9.44276 24.6276 8.94812 24.6276 8.43236C24.6276 7.91659 24.8325 7.42196 25.1972 7.05726C25.5619 6.69256 26.0565 6.48767 26.5723 6.48767C27.0881 6.48767 27.5827 6.69256 27.9474 7.05726C28.3121 7.42196 28.517 7.91659 28.517 8.43236C28.517 8.94812 28.3121 9.44276 27.9474 9.80746C27.5827 10.1722 27.0881 10.377 26.5723 10.377Z" fill="white"/>
</svg>
